<svg xmlns="http://www.w3.org/2000/svg" width="256" height="256" viewBox="0 0 100 100"><rect width="100" height="100" rx="20" fill="#532a93"></rect><path d="M49.01 51.53L49.01 71.06Q49.01 72.68 48.06 73.76Q47.12 74.84 45.23 75.83L45.23 75.83Q42.98 76.91 39.02 77.72Q35.06 78.53 31.01 78.53L31.01 78.53Q24.71 78.53 19.49 76.82Q14.27 75.11 10.49 71.60Q6.71 68.09 4.64 62.73Q2.57 57.38 2.57 50.09L2.57 50.09Q2.57 42.89 4.73 37.49Q6.89 32.09 10.63 28.54Q14.36 24.98 19.31 23.23Q24.26 21.47 29.84 21.47L29.84 21.47Q33.62 21.47 36.81 22.10Q40.01 22.73 42.26 23.77Q44.51 24.80 45.77 26.06Q47.03 27.32 47.03 28.58L47.03 28.58Q47.03 29.84 46.31 30.74Q45.59 31.64 44.60 32.09L44.60 32.09Q42.17 30.47 38.84 29.08Q35.51 27.68 30.29 27.68L30.29 27.68Q25.97 27.68 22.28 29.12Q18.59 30.56 15.89 33.35Q13.19 36.14 11.66 40.37Q10.13 44.60 10.13 50.09L10.13 50.09Q10.13 55.94 11.71 60.13Q13.28 64.31 16.11 67.01Q18.95 69.71 22.77 71.02Q26.60 72.32 31.10 72.32L31.10 72.32Q34.34 72.32 37.22 71.78Q40.10 71.24 41.72 70.43L41.72 70.43L41.72 53.87L28.13 53.87Q27.86 53.42 27.59 52.66Q27.32 51.89 27.32 50.99L27.32 50.99Q27.32 49.46 28.04 48.61Q28.76 47.75 30.11 47.75L30.11 47.75L45.14 47.75Q46.76 47.75 47.88 48.78Q49.01 49.82 49.01 51.53L49.01 51.53ZM67.19 77.36L67.19 77.36Q65.48 77.36 64.36 76.28Q63.23 75.20 63.23 73.40L63.23 73.40L63.23 22.82Q63.68 22.64 64.63 22.41Q65.57 22.19 66.65 22.19L66.65 22.19Q70.61 22.19 70.61 25.52L70.61 25.52L70.61 71.06L96.44 71.06Q97.43 72.05 97.43 74.03L97.43 74.03Q97.43 75.56 96.62 76.46Q95.81 77.36 94.46 77.36L94.46 77.36L67.19 77.36Z" fill="#fff"></path></svg>